<?xml version="1.0" encoding="UTF-8"?>
<svg width="1000px" height="1000px" viewBox="0 0 1000 1000" version="1.1" xmlns="http://www.w3.org/2000/svg"
>
    <title>Pinned Tab@2x</title>
    <g id="Pinned-Tab" stroke="none" stroke-width="1" fill="none" fill-rule="evenodd">
        <rect fill="#000000" x="0" y="0" width="1000" height="1000"></rect>
        <g id="X-/-Logo-/-Symbol-/-Black" transform="translate(204.090909, 140.681818)" fill="#FFFFFF">
            <path
                    d="M492.304496,142.038593 L590.847843,0 L500.454078,0 L430.694293,100.547815 C430.691122,100.544698 430.68478,100.541581 430.678438,100.538464 L383.892863,167.976563 C383.899205,167.976563 383.905547,167.97968 383.911889,167.982797 L146.851022,509.67706 C107.00369,471.496318 82.1902753,418.22717 82.1902753,359.338441 C82.1902753,243.508979 178.063603,149.272675 295.909091,149.272675 C299.394068,149.272675 302.853676,149.369295 306.297429,149.531369 L358.013977,74.9869769 C337.976153,70.7637193 317.212161,68.4915756 295.909091,68.4915756 C132.746221,68.4915756 -2.84217094e-14,198.963741 -2.84217094e-14,359.338441 C-2.84217094e-14,445.938597 38.7660062,523.771208 100.081302,577.090224 L1.88042877,718.636364 L92.2583382,718.636364 L344.600463,354.912592 L344.616318,354.912592 L445.503066,209.498509 C485.042807,247.64185 509.631078,300.711522 509.631078,359.338441 C509.631078,475.167903 413.75775,569.404207 295.909091,569.404207 C292.703166,569.404207 289.522609,569.301353 286.351566,569.164214 L234.558913,643.817694 C254.36208,647.941214 274.87556,650.144788 295.909091,650.144788 C459.075132,650.144788 591.818182,519.688206 591.818182,359.338441 C591.818182,272.990745 553.296346,195.354493 492.304496,142.038593"
                    id="Cold-Climate-Glyph"></path>
        </g>
    </g>
</svg>
