<svg width="364" height="166" viewBox="0 0 364 166" fill="none" xmlns="http://www.w3.org/2000/svg">
    <path fill-rule="evenodd" clip-rule="evenodd"
          d="M47.6595 92.7994C28.6793 92.7994 13.2366 77.4418 13.2366 58.5631C13.2366 39.6859 28.6793 24.3283 47.6595 24.3283C63.6365 24.3283 77.105 35.2114 80.9668 49.915H94.5102C90.4091 27.8947 70.9681 11.162 47.6595 11.162C21.38 11.162 0 32.4261 0 58.5631C0 84.6972 21.38 105.958 47.6595 105.958C70.9711 105.958 90.4121 89.2242 94.5116 67.2054H80.9682C77.1094 81.9133 63.6394 92.7994 47.6595 92.7994ZM227.069 12.4507H212.536V104.672H274.153V91.5071H227.069V12.4507ZM318.158 91.507H301.395V25.6198H318.158C338.168 25.6198 350.115 38.0781 350.115 58.9437C350.115 79.0297 337.87 91.507 318.158 91.507ZM318.158 12.4506H286.772V104.672H318.158C346.006 104.672 364 86.7245 364 58.9481C364 30.268 346.435 12.4506 318.158 12.4506ZM183.349 23.1487L199.22 0H184.661L173.426 16.3868L173.423 16.3853L165.888 27.3765H165.891L127.709 83.0651C121.292 76.8433 117.295 68.1616 117.295 58.5631C117.295 39.6859 132.736 24.3283 151.718 24.3283C152.278 24.3283 152.836 24.3429 153.389 24.3692L161.719 12.2204C158.491 11.5328 155.148 11.162 151.718 11.162C125.437 11.162 104.057 32.4261 104.057 58.5631C104.057 72.6769 110.301 85.3615 120.176 94.0519L104.36 117.12H118.917L159.559 57.8419H159.561L175.81 34.1428C182.179 40.3603 186.139 49.0084 186.139 58.5631C186.139 77.4418 170.698 92.7994 151.718 92.7994C151.201 92.7994 150.689 92.7833 150.178 92.76L141.835 104.928C145.024 105.599 148.328 105.958 151.718 105.958C177.997 105.958 199.377 84.6972 199.377 58.5631C199.377 44.4902 193.173 31.8377 183.349 23.1487Z"
          fill="white"/>
</svg>
